<svg xmlns="http://www.w3.org/2000/svg" width="3000" height="3000" viewBox="0 0 3000 3000">
    <style>
        .black { fill: rgba(26, 9, 13, 1) }
        .white { fill: rgba(238, 238, 255, 1) }
    </style>
    <g>
        <circle cx="1466" cy="1466" r="1300" class="black"></circle>
        <path d="M1466 0c-809.356 0-1465.5 656.126-1465.5 1465.482 0 809.443 656.144 1465.535 1465.5 1465.535 809.392 0 1465.5-656.091 1465.5-1465.535 0-809.304-656.074-1465.412-1465.518-1465.412l.018-.07zm672.069 2113.646c-26.32 43.173-82.565 56.7-125.598 30.397-344.137-210.332-777.297-257.845-1287.421-141.312-49.157 11.271-98.157-19.547-109.356-68.688-11.253-49.157 19.424-98.157 68.704-109.356 558.249-127.628 1037.101-72.695 1423.378 163.344 43.05 26.426 56.699 82.601 30.275 125.65l.018-.035zm179.374-398.981c-33.145 53.777-103.46 70.647-157.167 37.624-393.837-242.094-994.384-312.217-1460.32-170.781-60.428 18.252-124.25-15.803-142.59-76.125-18.2-60.428 15.873-124.128 76.195-142.503 532.227-161.489 1193.865-83.265 1646.239 194.723 53.726 33.075 70.7 103.425 37.625 157.079l.018-.017zm15.4-415.52c-472.395-280.542-1251.599-306.337-1702.556-169.47-72.414 21.962-148.994-18.918-170.939-91.333-21.945-72.449 18.9-148.977 91.367-170.992 517.667-157.149 1378.229-126.787 1922.022 196.035 65.135 38.657 86.503 122.779 47.897 187.827-38.5 65.135-122.85 86.607-187.774 47.933h-.017z" class="white"/>
        </g>
</svg>