<?xml version="1.0" encoding="UTF-8" standalone="no"?>
<svg width="256px" height="256px" viewBox="0 0 256 256" version="1.1" xmlns="http://www.w3.org/2000/svg" xmlns:xlink="http://www.w3.org/1999/xlink" preserveAspectRatio="xMidYMid">
    <style>
        .black { fill: rgba(26, 9, 13, 1)}
        .white { fill: rgba(238, 238, 255, 1)}
    </style>
    <g>
        <path d="M101.6,161.2 L170.8,125.4 L101.6,89.3 L101.6,161.2 L101.6,161.2 Z" class="black"></path>
        <path d="M253.301054,76.8 C253.301054,76.8 250.80203,59.2 243.105037,51.4 C233.408825,41.2 222.513081,41.2 217.415072,40.6 C181.729012,38 128.04998,38 128.04998,38 L127.95002,38 C127.95002,38 74.2709879,38 38.3850059,40.6 C33.3869582,41.2 22.4912144,41.2 12.695041,51.4 C5.09800859,59.2 2.59898477,76.8 2.59898477,76.8 C2.59898477,76.8 0,96.6 0,118.3 L0,137.7 C0,158.4 2.59898477,179.1 2.59898477,179.1 C2.59898477,179.1 5.09800859,196.7 12.795002,204.5 C22.4912144,214.7 35.2862163,214.4 40.9839906,215.4 C61.4759859,217.4 127.95002,218 127.95002,218 C127.95002,218 181.729012,217.9 217.515033,215.3 C222.513081,214.7 233.408825,214.7 243.204998,204.5 C250.901991,196.7 253.401015,179.1 253.401015,179.1 C253.401015,179.1 256,158.4 256,137.7 L256,118.3 C255.900039,97.6 253.301054,76.8 253.301054,76.8 L253.301054,76.8 Z M101.560328,161.2 L101.560328,89.3 L170.733307,125.4 L101.560328,161.2 L101.560328,161.2 Z"  class="white"></path>
    </g>
</svg>